<?xml version="1.0" encoding="UTF-8"?><svg id="Camada_1" xmlns="http://www.w3.org/2000/svg" viewBox="0 0 80 80"><defs><style>.cls-1{fill:lime;}</style></defs><path class="cls-1" d="M0,53.43c.2-1.49,.34-2.99,.62-4.46,2.46-12.77,9.44-22.27,20.85-28.47,6.38-3.47,13.28-4.86,20.53-4.52,4.39,.21,8.65,1.12,12.73,2.78,2.07,.84,3.04,3.01,2.29,5.05-.75,2.03-2.94,3.1-5.02,2.33-3.66-1.36-7.41-2.23-11.33-2.27-9.79-.1-18.02,3.46-24.57,10.71-5.37,5.94-8.05,13.01-8.16,21.03-.02,1.77-.73,3.14-2.38,3.88-1.51,.67-3,.48-4.2-.66C.77,58.26,.45,57.42,0,56.71c0-1.09,0-2.19,0-3.28Z"/><path class="cls-1" d="M40.78,64.07c-6.42,0-11.18-3.75-12.48-9.12-1.32-5.43,1.2-10.99,6.11-13.51,9.98-5.14,19.95-10.28,29.93-15.42,.18-.1,.37-.27,.56-.26,.41,0,.96-.05,1.18,.18,.23,.23,.17,.78,.16,1.19,0,.21-.2,.42-.3,.62-5.12,9.93-10.2,19.88-15.36,29.79-2.22,4.26-5.89,6.36-9.79,6.53Zm-.89-6.86c2.84,.01,5.11-2.22,5.15-5.06,.04-2.82-2.22-5.12-5.05-5.16-2.86-.03-5.18,2.24-5.18,5.1,0,2.83,2.26,5.11,5.09,5.12Z"/><path class="cls-1" d="M80,54.71c-.09,.88-.09,1.59-.25,2.26-.45,1.77-2.1,2.92-3.98,2.86-1.78-.06-3.39-1.38-3.65-3.16-.19-1.28-.17-2.59-.28-3.88-.4-4.51-1.76-8.74-3.98-12.68-.51-.91-.84-1.84-.65-2.9,.3-1.7,1.53-2.98,3.13-3.28,1.72-.32,3.34,.4,4.24,1.96,2.33,4.04,3.93,8.36,4.71,12.96,.34,1.99,.5,4.02,.72,5.86Z"/></svg>