<?xml version="1.0" encoding="UTF-8"?><svg id="Camada_1" xmlns="http://www.w3.org/2000/svg" viewBox="0 0 80 80"><defs><style>.cls-1{fill:lime;}</style></defs><path class="cls-1" d="M30.46,0c.05,.32,.08,.65,.16,.97,.08,.31,.12,.71,.34,.88,.55,.44,.44,.82,.13,1.33-.93,1.56-.76,3.11,.41,4.36,.43,.46,.91,.67,1.54,.51,.6-.16,1.21-.34,1.82-.43,.5-.07,1.04-.11,1.53,0,.8,.17,1.43,0,1.97-.6,.6-.68,2.08-.74,2.77-.11,1.13,1.02,2.44,.84,3.76,.58,.18-.04,.31-.32,.48-.47,.22-.21,.47-.39,.67-.62,.19-.22,.33-.49,.51-.72,.38-.5,.75-1,1.18-1.46,.05-.05,.59,.19,.65,.37,.27,.92,.56,1.86,.65,2.81,.08,.83,.4,1.3,1.2,1.47,.25,.05,.48,.17,.64,.23-.27,.61-.48,1.19-.77,1.72-.13,.23-.45,.34-.66,.53-.85,.76-1.7,1.51-2.52,2.3-.2,.2-.28,.53-.41,.8,.05,.07,.11,.15,.16,.22,.49-.23,1.05-.38,1.46-.71,1.56-1.28,3.2-.94,4.86-.32,.61,.23,.61,.59,.11,.95-.8,.6-1.61,1.19-2.47,1.82,.1,.14,.26,.38,.46,.67,.45-.34,.87-.64,1.28-.96,.99-.79,2.1-.96,3.32-.72,1.32,.26,2.53,.76,3.59,1.61,.49,.4,1.3,.61,1.5,1.1,.2,.47-.21,1.18-.35,1.79-.02,.1-.04,.2-.09,.42,.55-.19,1.03-.35,1.5-.51,1.13-.38,2.12-.34,3.12,.49,.84,.7,1.93,.95,3.09,.7,1.01-.22,1.99-.14,2.62,.87,.03,.04,.06,.11,.1,.12,1.6,.52,2.11,2.08,3,3.24,.74,.97,1.57,1.59,2.79,1.78,1.31,.21,1.87,.89,2.06,2.18,.13,.85,.26,1.7,.41,2.54,.23,1.32-.09,2.46-1.01,3.46-.7,.76-1.31,1.62-2.05,2.33-.45,.42-1.06,.77-1.66,.92-.96,.24-1.55,.7-1.85,1.66-.42,1.35-1.39,2.25-2.71,2.72-.76,.27-1.08,.78-1.2,1.55-.37,2.28-.73,4.57-1.23,6.82-.16,.72-.61,1.44-1.1,2-.41,.47-.71,.89-.65,1.5,.07,.73-.18,1.31-.66,1.84-.76,.84-1.31,1.88-2.41,2.39-.23,.11-.4,.41-.53,.66-.85,1.58-2.25,2.45-3.91,2.86-.59,.14-1.3,.04-1.89-.17-.71-.24-1.27-.22-1.77,.32-.59,.63-1.32,.91-2.17,.9-.21,0-.47-.04-.61,.06-1.17,.84-2.69,1.09-3.66,2.26-.15,.19-.53,.19-.81,.28-.09-.06-.18-.12-.27-.18-.28,1.64-.57,3.29-.84,4.93-.15,.93-.55,1.7-1.21,2.39-.64,.67-1.21,1.41-1.73,2.17-.54,.79-.7,.88-1.63,.37-.9,1.16-2.24,1.98-2.65,3.55-.1,.39-.33,1-.98,.46-1.11,.41-1.41-.42-1.95-1.11-.68-.87-1.57-1.59-2.4-2.33-.16-.14-.53-.17-.74-.1-.51,.18-.72,.19-.79-.47-.05-.5-.37-1.01-.68-1.43-.46-.62-.51-1.09,.07-1.7,1.46-1.53,2.92-3.03,4.98-3.79,.36-.13,.62-.69,.81-1.11,.15-.34,.13-.76,.18-1.15,.1-.7-.08-1.3-.69-1.7-.36-.24-.43-.5-.29-.92,.19-.56,.31-1.16,.38-1.75,.09-.7-.27-1-.98-.92-1.13,.14-1.14,.13-1.11-.99,0-.34,.05-.68,.04-1.01-.04-1.01-.76-1.83-1.77-1.98-.54-.08-1.09-.1-1.63-.17-.55-.07-.87-.39-.82-.95,.14-1.67-.02-3.36,.68-4.98,.37-.86,.43-1.88,.49-2.83,.02-.3-.33-.73-.63-.92-.76-.47-.93-.76-.66-1.58,.34-1.05,.32-.98-.81-1.13-.82-.11-1.66-.39-2.4-.77-.7-.36-.61-.98-.42-1.75,.2-.82,.38-1.9,.01-2.54-.34-.58-1.42-.75-2.19-1.07-.23-.09-.64,0-.73-.13-.68-1.13-2.08-1.18-2.95-2.01-.15-.15-.41-.24-.63-.26-1.74-.21-3-1.73-2.85-3.49,.05-.54,.14-1.07,.23-1.6,.1-.6-.25-.93-.84-.91-1.15,.03-2.01,.54-2.95,1.18-.83,.57-1.78,1.22-2.97,1.12-.88-.07-1.77,.02-2.65,.02-.7,0-1.07-.37-1.05-1.07,.02-.65,.09-1.29,.14-2.07-.79,.3-1.52,.58-2.25,.88-.51,.21-.9,.23-1.08-.41-.05-.18-.22-.41-.38-.47-1.41-.51-1.63-1.77-1.97-2.97-.05-.19-.15-.4-.29-.53-.83-.77-.4-1.59,.19-2.24,.33-.36,.69-.8,.78-1.25,.33-1.54,1.2-2.71,2.58-3.29,.95-.4,2.1-.41,3.16-.4,.84,0,1,.04,1.17-.8,.27-1.31,.53-2.63,.82-3.94,.07-.29,.25-.57,.42-.83,.49-.75,.43-1.46-.09-2.17-.29-.4-.58-.81-.79-1.25-.35-.74-.07-1.19,.76-1.3,.15-.02,.33,.01,.46-.05,.18-.08,.46-.22,.47-.33,0-.19-.17-.4-.3-.57-.07-.09-.26-.09-.33-.19-.18-.22-.5-.57-.44-.69,.13-.24,.46-.43,.74-.51,.29-.08,.62,0,.93-.01,.67-.05,1.35-.06,2-.19,1.14-.23,1.65,.06,2.02,1.13,.14,.4,.38,.8,.67,1.1,.16,.17,.53,.17,.81,.2,.17,.02,.39-.13,.53-.07,.95,.4,1.63-.18,2.36-.6,.86-.49,1.72-.98,2.58-1.45,.8-.44,.82-.93,.07-1.44-.78-.53-1.21-1.52-.98-2.28,.15-.5,.41-.79,.97-.48,.29,.17,.61,.29,.9,.46,.26,.15,.51,.34,.82,.55,.2-.26,.35-.52,.56-.69,.25-.19,.57-.44,.85-.43,1.64,.08,2.95-.44,3.8-1.91,.21,0,.42,0,.63,0Z"/></svg>