<?xml version="1.0" encoding="UTF-8"?><svg id="Camada_1" xmlns="http://www.w3.org/2000/svg" viewBox="0 0 80 80"><defs><style>.cls-1{fill:lime;}</style></defs><path class="cls-1" d="M46.4,0c1.75,.48,3.26,1.34,3.97,3.08,.39,.96,.5,2.04,.73,3.03,1.26,.18,2.64,.27,3.96,.6,5.25,1.31,9.11,6.1,9.26,11.51,.09,3.12,.03,6.25,.03,9.37,0,7.94,0,15.88,0,23.82,0,1.58-.73,2.73-2.01,3.21-1.94,.73-4.03-.58-4.22-2.66-.03-.31-.02-.62-.02-.94,0-10.62,0-21.25,0-31.87,0-3.23-1.69-5.63-4.66-6.4-1.04-.27-2.16-.21-3.25-.26-.78-.04-1.56,0-2.34-.01-1.85-.05-3.13-1.32-3.18-3.16-.02-.99,0-1.98,0-3.02h-9.38c0,.92,0,1.85,0,2.77-.02,2.13-1.28,3.4-3.4,3.42-1.17,0-2.34,0-3.52,0-3.82,.03-6.48,2.68-6.52,6.49-.02,1.8,0,3.59,0,5.39,0,14.22,0,28.43,0,42.65,0,2.71,1.05,4.83,3.53,6.02,.88,.42,1.94,.66,2.93,.66,7.78,.05,15.57,.05,23.36,.02,3.66-.01,6.16-2.48,6.44-6.25,.16-2.22,2.06-3.59,4.07-2.96,1.27,.4,2.13,1.56,2.17,2.94,.17,5.93-4.66,11.59-10.57,12.36-.72,.09-1.45,.16-2.18,.16-7.76,.01-15.52,.02-23.28,0-5.56-.01-10.23-3.25-11.99-8.43-.45-1.33-.69-2.8-.69-4.2-.05-16.14-.04-32.29-.02-48.43,0-7.14,5.46-12.59,12.6-12.67,.25,0,.51,0,.83,0,0-.3,0-.53,0-.76,.07-2.69,1.57-4.62,4.18-5.35,.12-.03,.23-.09,.35-.14,4.27,0,8.54,0,12.81,0Z"/><path class="cls-1" d="M38.33,47.03c-2.1,0-4.1,.02-6.1,0-1.75-.02-3.05-1.03-3.24-2.66-.08-.68,.08-1.49,.4-2.09,2.25-4.13,4.57-8.23,6.89-12.33,.11-.2,.42-.4,.64-.4,3.46-.02,6.93-.01,10.39,0,.04,0,.08,.04,.2,.11-1.85,2.99-3.7,5.98-5.63,9.1,1.67,0,3.2,0,4.72,0,.73,0,1.46,.01,2.19,0,1.05-.02,1.91,.33,2.37,1.32,.48,1.02,.17,1.91-.54,2.72-1.58,1.8-3.15,3.61-4.73,5.41-3.15,3.61-6.3,7.22-9.47,10.81-.23,.27-.52,.58-.84,.66-.39,.1-.93,.1-1.22-.11-.21-.15-.24-.77-.12-1.09,1.24-3.53,2.52-7.05,3.79-10.57,.09-.26,.18-.53,.3-.87Z"/></svg>