<?xml version="1.0" encoding="UTF-8"?><svg id="Camada_1" xmlns="http://www.w3.org/2000/svg" viewBox="0 0 80 80"><defs><style>.cls-1{fill:lime;}</style></defs><path class="cls-1" d="M79.92,40.61c-.05,.05-.11,.1-.15,.16-.6,1.2-1.59,1.75-2.68,1.49-1.16-.27-1.75-1.19-1.87-2.54-.2-2.32-.23-4.7-.79-6.95-3.62-14.69-12.79-24.19-27.6-27.24-14.14-2.91-25.83,2.11-34.92,13.24-.08,.1-.14,.21-.29,.44,1.2-.07,2.29-.13,3.38-.19,.47-.03,.93-.08,1.4-.08,1.3,.02,2.31,.98,2.37,2.22,.06,1.28-.89,2.34-2.23,2.44-2.67,.18-5.34,.34-8.02,.49-.69,.04-1.42,.12-2.07-.05-1.14-.3-1.71-1.14-1.71-2.32-.02-3.25-.02-6.5,0-9.75,0-1.39,1.05-2.4,2.36-2.39,1.28,.01,2.27,1.01,2.31,2.36,.02,.77,0,1.55,0,2.32,.07,.05,.14,.1,.21,.16,.1-.17,.18-.36,.31-.5C16.28,6.76,24.15,2.3,33.57,.62c1.35-.24,2.72-.37,4.08-.55,1.56,0,3.12,0,4.68,0,.54,.06,1.07,.13,1.61,.19,6.58,.7,12.66,2.82,18.12,6.55,9.36,6.41,15.18,15.18,17.24,26.38,.27,1.47,.41,2.97,.62,4.46v2.96Z"/><path class="cls-1" d="M43.32,33.95c2.65,.89,5.21,1.74,7.76,2.59,1.13,.38,2.27,.74,3.4,1.13,2.04,.7,2.53,2.63,1.02,4.15-7.65,7.67-15.32,15.34-22.99,22.99-1.47,1.47-3.55,1.03-4.1-.81-.24-.79,.05-1.48,.39-2.16,2.49-4.99,4.99-9.98,7.48-14.97,.12-.25,.24-.5,.38-.81-.3-.11-.53-.21-.77-.29-3.42-1.14-6.84-2.28-10.26-3.43-2.19-.74-2.67-2.64-1.05-4.27,7.6-7.61,15.23-15.21,22.82-22.84,1.79-1.8,3.77-.72,4.19,.71,.24,.82-.04,1.53-.39,2.24-2.46,4.92-4.92,9.84-7.38,14.76-.15,.3-.29,.6-.48,1.01Z"/><path class="cls-1" d="M68.35,60.75c-1.22,.07-2.33,.14-3.44,.21-.44,.03-.88,.08-1.32,.07-1.32-.02-2.36-1.03-2.38-2.29-.02-1.25,.91-2.28,2.22-2.37,2.49-.17,4.98-.32,7.47-.47,.54-.03,1.09-.07,1.63-.11,1.52-.09,2.7,.96,2.71,2.46,.02,3.22,.02,6.44,0,9.67,0,1.45-1.02,2.48-2.36,2.47-1.33-.01-2.29-1.05-2.32-2.51-.01-.72,0-1.44,0-2.17-.07-.05-.14-.1-.2-.15-.12,.18-.22,.39-.36,.55-5.67,6.41-12.64,10.75-20.98,12.69-11.39,2.66-22,.6-31.61-6.01C8.68,66.79,3.18,58.5,.95,48.14c-.55-2.55-.66-5.19-.86-7.8-.12-1.58,.89-2.66,2.27-2.69,1.39-.03,2.36,1.03,2.38,2.6,.07,5.71,1.35,11.14,4.12,16.13,5.87,10.56,14.76,17.04,26.8,18.49,13.17,1.58,23.89-3.29,32.25-13.49,.14-.17,.25-.37,.43-.64Z"/></svg>