<?xml version="1.0" encoding="UTF-8"?><svg id="Camada_1" xmlns="http://www.w3.org/2000/svg" viewBox="0 0 80 80"><defs><style>.cls-1{fill:lime;}</style></defs><path class="cls-1" d="M68.61,26.37h-10.38c.01-.14,.02-.29,.02-.43V4.48c0-2.47-2.01-4.48-4.48-4.48h0c-2.47,0-4.48,2.01-4.48,4.48V25.93c0,.15,0,.29,.02,.43H31.67c.01-.14,.02-.29,.02-.43V4.48c0-2.47-2.01-4.48-4.48-4.48s-4.48,2.01-4.48,4.48V25.93c0,.15,0,.29,.02,.43H11.39c-1.44,0-2.61,1.17-2.61,2.61v3.73c0,1.44,1.17,2.61,2.61,2.61h4.03v9.91c0,11.38,9.11,20.62,20.43,20.85v13.92h8.96v-13.91h.44c11.52,0,20.86-9.34,20.86-20.86v-9.91h2.5c1.44,0,2.61-1.17,2.61-2.61v-3.73c0-1.44-1.17-2.61-2.61-2.61Zm-30.84,29.65l1.59-8.84h-4.54l7.49-13.38-1,9.14h4.54l-8.07,13.08Z"/></svg>