<?xml version="1.0" encoding="UTF-8"?><svg id="Camada_1" xmlns="http://www.w3.org/2000/svg" viewBox="0 0 80 80"><defs><style>.cls-1{fill:none;stroke:lime;stroke-miterlimit:10;stroke-width:3px;}.cls-2{fill:lime;}</style></defs><path class="cls-2" d="M54.58,7.8H25.82c-3.38,0-6.11,2.74-6.11,6.11v52.17c0,3.38,2.74,6.11,6.11,6.11h28.76c3.38,0,6.11-2.74,6.11-6.11V13.91c0-3.38-2.74-6.11-6.11-6.11Zm.29,53.69H25.53V18.51h29.35V61.49Z"/><path class="cls-2" d="M13.25,30.34c-3.53,2.86-5.7,7.94-4.2,12.38,.8,2.37,2.37,4.35,4.2,6.01,1.4,1.27,3.49-.81,2.08-2.08-1.71-1.55-3.23-3.38-3.71-5.68-.14-.68-.17-1.47-.07-2.27-.03,.21,.06-.33,.07-.38,.04-.2,.09-.4,.15-.6s.11-.39,.18-.58c.02-.05,.22-.56,.12-.34,.28-.68,.66-1.32,1.07-1.93,.09-.14,.19-.28,.29-.41,.04-.06,.27-.35,.06-.09,.18-.23,.37-.46,.56-.67,.4-.45,.82-.89,1.28-1.27,.62-.5,.52-1.56,0-2.08-.61-.61-1.46-.5-2.08,0h0Z"/><path class="cls-2" d="M8.62,24.41C2.45,29.13-1.87,37.46,.81,45.19c1.41,4.07,4.27,7.42,7.51,10.18,.6,.51,1.49,.59,2.08,0,.53-.53,.61-1.56,0-2.08-2.65-2.25-5.14-4.92-6.49-8.17-.23-.56-.42-1.15-.58-1.74-.17-.63-.3-1.31-.35-1.8-.11-1.08-.07-2.44,.07-3.25,.37-2.26,1.08-3.92,2.25-5.82,.25-.41,.52-.82,.8-1.21,.12-.17,.25-.34,.37-.51,.03-.04,.28-.37,.07-.09,.1-.13,.2-.25,.3-.38,.49-.61,1.02-1.2,1.57-1.76,.44-.46,.9-.9,1.38-1.31,.15-.14,.99-.8,.31-.28,.63-.48,.96-1.27,.53-2.01-.36-.62-1.38-1.01-2.01-.53h0Z"/><path class="cls-2" d="M66.75,49.66c3.53-2.86,5.7-7.94,4.2-12.38-.8-2.37-2.37-4.35-4.2-6.01-1.4-1.27-3.49,.81-2.08,2.08,1.71,1.55,3.23,3.38,3.71,5.68,.14,.68,.17,1.47,.07,2.27,.03-.21-.06,.33-.07,.38-.04,.2-.09,.4-.15,.6s-.11,.39-.18,.58c-.02,.05-.22,.56-.12,.34-.28,.68-.66,1.32-1.07,1.93-.09,.14-.19,.28-.29,.41-.04,.06-.27,.35-.06,.09-.18,.23-.37,.46-.56,.67-.4,.45-.82,.89-1.28,1.27-.62,.5-.52,1.56,0,2.08,.61,.61,1.46,.5,2.08,0h0Z"/><path class="cls-2" d="M71.38,55.59c6.16-4.72,10.48-13.05,7.81-20.78-1.41-4.07-4.27-7.42-7.51-10.18-.6-.51-1.49-.59-2.08,0-.53,.53-.61,1.56,0,2.08,2.65,2.25,5.14,4.92,6.49,8.17,.23,.56,.42,1.15,.58,1.74,.17,.63,.3,1.31,.35,1.8,.11,1.08,.07,2.44-.07,3.25-.37,2.26-1.08,3.92-2.25,5.82-.25,.41-.52,.82-.8,1.21-.12,.17-.25,.34-.37,.51-.03,.04-.28,.37-.07,.09-.1,.13-.2,.25-.3,.38-.49,.61-1.02,1.2-1.57,1.76-.44,.46-.9,.9-1.38,1.31-.15,.14-.99,.8-.31,.28-.63,.48-.96,1.27-.53,2.01,.36,.62,1.38,1.01,2.01,.53h0Z"/><rect class="cls-2" x="31.41" y="37.61" width="17.93" height="14.21" rx="4.01" ry="4.01"/><path class="cls-1" d="M39.98,28.59h.69c2.57,0,4.66,2.09,4.66,4.66v4.37h-9.72v-4.65c0-2.42,1.96-4.38,4.38-4.38Z"/></svg>